<svg version="1.1" id="Layer_1" xmlns="http://www.w3.org/2000/svg" xmlns:xlink="http://www.w3.org/1999/xlink" x="0px" y="0px"
	 width="100%" viewBox="0 0 88 74" enable-background="new 0 0 88 74" xml:space="preserve">
<path fill="#FEFEFE" opacity="1.000000" stroke="none" 
	d="
M56.000000,75.000000 
	C37.333332,75.000000 19.166666,75.000000 1.000000,75.000000 
	C1.000000,50.333332 1.000000,25.666666 1.000000,1.000000 
	C30.333334,1.000000 59.666668,1.000000 89.000000,1.000000 
	C89.000000,25.666666 89.000000,50.333332 89.000000,75.000000 
	C78.166664,75.000000 67.333336,75.000000 56.000000,75.000000 
M18.996159,35.020027 
	C18.996159,35.020027 18.936703,35.086826 18.885883,35.764961 
	C18.950642,36.213165 19.015400,36.661373 19.107874,37.650204 
	C19.409082,37.839314 19.710293,38.028419 19.601091,38.872326 
	C20.116383,43.921505 20.631676,48.970684 21.045361,54.828259 
	C22.034483,58.483280 23.023605,62.138306 23.410795,66.116310 
	C24.572729,70.534584 27.818342,72.293732 32.497601,73.006470 
	C32.661877,72.955597 32.826153,72.904724 33.915073,73.025299 
	C45.279446,72.970818 56.643822,72.916336 68.696609,73.021217 
	C69.493568,72.692268 70.290520,72.363319 71.792168,71.998131 
	C73.812019,69.352608 75.831871,66.707085 78.025726,63.235947 
	C79.292412,55.169277 80.559097,47.102608 81.962868,38.312885 
	C82.300278,36.935684 82.637688,35.558479 83.681702,33.806038 
	C85.082558,29.385334 82.579483,26.551376 79.466232,24.234821 
	C76.407875,21.959116 73.067848,20.061968 70.203873,17.345404 
	C73.102844,16.382378 74.965088,14.176311 73.732292,11.460736 
	C73.103600,10.075871 70.159775,9.371791 68.152977,9.056457 
	C63.323257,8.297544 63.983368,11.901313 63.233086,14.977078 
	C59.961010,13.614878 56.774704,11.943795 53.385681,11.002767 
	C51.247665,10.409103 48.461163,10.162811 46.561455,11.044566 
	C38.518070,14.777914 30.443607,18.572803 22.875690,23.161829 
	C16.699394,26.907001 15.582726,28.853340 18.138193,34.406239 
	C18.396103,34.620842 18.654013,34.835445 18.996159,35.020027 
z"/>
<path fill="#E254A5" opacity="1.000000" stroke="none" 
	d="
M24.012730,65.793327 
	C23.023605,62.138306 22.034483,58.483280 21.436859,54.370895 
	C29.700691,49.205841 37.466629,44.269485 46.909538,43.186546 
	C47.516190,43.116974 48.008198,42.047779 48.683510,41.468147 
	C48.813484,41.492702 49.082344,41.496883 49.273567,41.640373 
	C49.788712,41.650215 49.982220,41.411045 50.227692,41.027748 
	C50.410061,40.989147 50.779854,40.941757 51.167168,40.965927 
	C53.348759,40.001709 55.143032,39.013321 57.267540,38.145462 
	C57.961418,39.172222 58.325054,40.078449 59.027840,41.829868 
	C59.664070,40.284138 59.933453,39.629677 60.573006,39.039211 
	C65.573082,39.061108 70.202995,39.019009 74.918182,39.332790 
	C75.698906,40.516197 76.394356,41.343723 77.580925,42.755650 
	C77.873146,40.819675 78.012474,39.896622 78.519363,38.988453 
	C79.866547,39.014202 80.846169,39.025070 81.825783,39.035942 
	C80.559097,47.102608 79.292412,55.169277 77.623703,63.494087 
	C76.118927,63.467319 75.016159,63.182415 73.765656,62.514290 
	C73.408554,58.851715 73.056427,55.573830 73.022484,52.292652 
	C72.968300,47.052914 69.379990,45.000881 65.213280,44.215717 
	C61.383183,43.493996 58.036278,45.830158 57.281784,49.408485 
	C56.442020,53.391228 57.078190,57.685173 56.731579,61.986771 
	C54.125130,64.476768 51.663601,66.885231 48.484852,63.818893 
	C45.811817,61.240379 43.754303,61.448536 41.424885,64.069229 
	C39.343159,66.411247 37.371510,67.177544 35.213818,63.832188 
	C33.315277,60.888638 30.711592,61.490906 29.466711,64.284012 
	C28.039803,67.485535 26.202627,66.676582 24.012730,65.793327 
z"/>
<path fill="#41210B" opacity="1.000000" stroke="none" 
	d="
M78.151794,38.973572 
	C78.012474,39.896622 77.873146,40.819675 77.580925,42.755650 
	C76.394356,41.343723 75.698906,40.516197 74.984436,38.873718 
	C74.388451,33.421120 76.584946,28.303215 72.562424,22.832676 
	C72.118103,25.800564 71.882500,27.374315 71.641960,28.981031 
	C66.050774,27.149521 65.512077,27.497517 64.679222,32.506748 
	C63.300247,31.879892 61.447163,30.245916 60.177063,30.615488 
	C56.965340,31.550035 58.746960,34.243958 59.128693,36.283791 
	C59.303020,37.215313 59.833752,38.080139 60.202835,38.975216 
	C59.933453,39.629677 59.664070,40.284138 59.027840,41.829868 
	C58.325054,40.078449 57.961418,39.172222 57.239620,37.741489 
	C56.850178,36.140289 56.818893,35.063599 56.874523,33.663467 
	C56.909851,32.899918 56.858265,32.459801 56.878044,31.618544 
	C56.902393,24.790329 55.622276,24.008945 49.808563,27.021889 
	C49.339977,27.011326 49.152500,27.009098 48.690350,27.015217 
	C48.232834,27.035009 48.049988,27.046452 47.561729,26.880699 
	C45.317886,24.801935 43.499542,21.529125 41.410625,21.346207 
	C38.804928,21.118038 35.976288,23.435852 33.243908,24.654381 
	C27.933229,24.206291 27.418488,24.508881 26.575794,30.189560 
	C26.167341,30.695660 25.983955,31.026300 25.431713,31.258522 
	C21.050432,30.546629 20.414621,32.214176 22.186726,35.455067 
	C23.643595,38.119450 22.943127,39.034145 20.011501,38.217529 
	C19.710293,38.028419 19.409082,37.839314 19.374212,37.256287 
	C19.405935,36.270523 19.171318,35.678677 18.936703,35.086826 
	C18.936703,35.086826 18.996159,35.020027 18.961948,34.762421 
	C18.643045,34.297371 18.358349,34.089928 18.073654,33.882484 
	C15.582726,28.853340 16.699394,26.907001 22.875690,23.161829 
	C30.443607,18.572803 38.518070,14.777914 46.561455,11.044566 
	C48.461163,10.162811 51.247665,10.409103 53.385681,11.002767 
	C56.774704,11.943795 59.961010,13.614878 63.942211,14.995114 
	C66.384697,16.008331 68.118065,17.003513 69.851425,17.998695 
	C73.067848,20.061968 76.407875,21.959116 79.466232,24.234821 
	C82.579483,26.551376 85.082558,29.385334 82.995911,33.779175 
	C81.923401,30.675671 81.442261,27.724051 76.625633,29.844868 
	C77.143707,32.943707 77.647758,35.958641 78.151794,38.973572 
z"/>
<path fill="#FC67B8" opacity="1.000000" stroke="none" 
	d="
M19.806297,38.544930 
	C22.943127,39.034145 23.643595,38.119450 22.186726,35.455067 
	C20.414621,32.214176 21.050432,30.546629 25.367836,31.428577 
	C25.672813,31.697052 25.594345,32.052032 25.422636,32.271420 
	C25.437584,33.322025 25.624241,34.153244 25.880863,35.246765 
	C26.014774,35.678379 26.078720,35.847691 26.044041,36.429665 
	C26.417070,39.533676 26.888721,42.225021 27.360373,44.916367 
	C27.923429,44.816467 28.486488,44.716564 29.049545,44.616661 
	C28.662214,41.748791 28.274883,38.880924 27.926888,35.626072 
	C27.577770,33.497425 27.189318,31.755764 26.800863,30.014101 
	C27.418488,24.508881 27.933229,24.206291 33.243908,24.654381 
	C35.976288,23.435852 38.804928,21.118038 41.410625,21.346207 
	C43.499542,21.529125 45.317886,24.801935 47.611568,27.245649 
	C47.966461,28.033352 47.966095,28.278912 47.979904,28.854031 
	C47.985119,30.282919 47.976154,31.382248 47.935684,32.906677 
	C47.722931,35.530533 47.541683,37.729298 47.349079,40.188126 
	C47.742996,40.779995 48.148266,41.111794 48.553535,41.443596 
	C48.008198,42.047779 47.516190,43.116974 46.909538,43.186546 
	C37.466629,44.269485 29.700691,49.205841 21.487661,53.966698 
	C20.631676,48.970684 20.116383,43.921505 19.806297,38.544930 
M33.149837,38.043545 
	C33.241898,38.161373 33.319298,38.298908 33.434982,38.384983 
	C33.469509,38.410675 33.691929,38.291485 33.691414,38.240047 
	C33.685928,37.691090 33.652901,37.142406 33.627438,36.593651 
	C33.444016,36.885860 33.260593,37.178070 33.149837,38.043545 
z"/>
<path fill="#41210A" opacity="1.000000" stroke="none" 
	d="
M23.711761,65.954819 
	C26.202627,66.676582 28.039803,67.485535 29.466711,64.284012 
	C30.711592,61.490906 33.315277,60.888638 35.213818,63.832188 
	C37.371510,67.177544 39.343159,66.411247 41.424885,64.069229 
	C43.754303,61.448536 45.811817,61.240379 48.484852,63.818893 
	C51.663601,66.885231 54.125130,64.476768 57.094181,62.051903 
	C60.826900,63.851418 63.191509,67.526222 67.542412,65.932617 
	C69.741600,65.127113 71.794411,63.921963 73.913399,62.897507 
	C75.016159,63.182415 76.118927,63.467319 77.536705,63.906891 
	C75.831871,66.707085 73.812019,69.352608 71.102524,72.001602 
	C69.611313,72.290672 68.809753,72.576263 68.008194,72.861855 
	C56.643822,72.916336 45.279446,72.970818 33.362621,72.789169 
	C32.541985,72.652405 32.273800,72.751778 32.005615,72.851151 
	C27.818342,72.293732 24.572729,70.534584 23.711761,65.954819 
z"/>
<path fill="#D8070A" opacity="1.000000" stroke="none" 
	d="
M70.027649,17.672050 
	C68.118065,17.003513 66.384697,16.008331 64.318184,14.932785 
	C63.983368,11.901313 63.323257,8.297544 68.152977,9.056457 
	C70.159775,9.371791 73.103600,10.075871 73.732292,11.460736 
	C74.965088,14.176311 73.102844,16.382378 70.027649,17.672050 
z"/>
<path fill="#FB68BA" opacity="1.000000" stroke="none" 
	d="
M78.519363,38.988453 
	C77.647758,35.958641 77.143707,32.943707 76.625633,29.844868 
	C81.442261,27.724051 81.923401,30.675671 82.642609,33.966797 
	C82.637688,35.558479 82.300278,36.935684 81.894325,38.674416 
	C80.846169,39.025070 79.866547,39.014202 78.519363,38.988453 
z"/>
<path fill="#452B18" opacity="1.000000" stroke="none" 
	d="
M68.352402,72.941536 
	C68.809753,72.576263 69.611313,72.290672 70.750175,72.019730 
	C70.290520,72.363319 69.493568,72.692268 68.352402,72.941536 
z"/>
<path fill="#D1C5BA" opacity="1.000000" stroke="none" 
	d="
M18.911293,35.425896 
	C19.171318,35.678677 19.405935,36.270523 19.360353,36.985977 
	C19.015400,36.661373 18.950642,36.213165 18.911293,35.425896 
z"/>
<path fill="#D1C5BA" opacity="1.000000" stroke="none" 
	d="
M18.105923,34.144363 
	C18.358349,34.089928 18.643045,34.297371 18.919830,34.777431 
	C18.654013,34.835445 18.396103,34.620842 18.105923,34.144363 
z"/>
<path fill="#452B18" opacity="1.000000" stroke="none" 
	d="
M32.251610,72.928810 
	C32.273800,72.751778 32.541985,72.652405 32.900299,72.703445 
	C32.826153,72.904724 32.661877,72.955597 32.251610,72.928810 
z"/>
<path fill="#FDFCFD" opacity="1.000000" stroke="none" 
	d="
M73.765656,62.514290 
	C71.794411,63.921963 69.741600,65.127113 67.542412,65.932617 
	C63.191509,67.526222 60.826900,63.851418 57.434456,61.908779 
	C57.078190,57.685173 56.442020,53.391228 57.281784,49.408485 
	C58.036278,45.830158 61.383183,43.493996 65.213280,44.215717 
	C69.379990,45.000881 72.968300,47.052914 73.022484,52.292652 
	C73.056427,55.573830 73.408554,58.851715 73.765656,62.514290 
z"/>
<path fill="#FB67B8" opacity="1.000000" stroke="none" 
	d="
M60.573006,39.039211 
	C59.833752,38.080139 59.303020,37.215313 59.128693,36.283791 
	C58.746960,34.243958 56.965340,31.550035 60.177063,30.615488 
	C61.447163,30.245916 63.300247,31.879892 64.679222,32.506748 
	C65.512077,27.497517 66.050774,27.149521 71.641960,28.981031 
	C71.882500,27.374315 72.118103,25.800564 72.562424,22.832676 
	C76.584946,28.303215 74.388451,33.421120 74.899155,38.517838 
	C70.202995,39.019009 65.573082,39.061108 60.573006,39.039211 
z"/>
<path fill="#FD67B8" opacity="1.000000" stroke="none" 
	d="
M47.967194,32.481579 
	C47.976154,31.382248 47.985119,30.282919 48.045403,28.893093 
	C48.096718,28.602596 48.242886,28.645117 48.760315,28.821182 
	C49.548389,28.341572 49.819035,27.685898 50.089676,27.030222 
	C55.622276,24.008945 56.902393,24.790329 56.684071,31.769947 
	C56.541691,32.877296 56.664650,33.432098 56.787609,33.986904 
	C56.818893,35.063599 56.850178,36.140289 56.909386,37.620956 
	C55.143032,39.013321 53.348759,40.001709 51.212944,40.714397 
	C50.817719,40.276928 50.764038,40.115162 50.771362,39.566040 
	C50.799450,38.135651 50.766544,37.092613 50.802574,35.770557 
	C50.804272,35.312119 50.737034,35.132698 50.677784,34.552883 
	C49.779579,33.595520 48.873383,33.038548 47.967194,32.481579 
z"/>
<path fill="#371E03" opacity="1.000000" stroke="none" 
	d="
M47.935684,32.906677 
	C48.873383,33.038548 49.779579,33.595520 50.532410,34.661873 
	C50.497246,35.464027 50.615444,35.756802 50.733639,36.049576 
	C50.766544,37.092613 50.799450,38.135651 50.580368,39.694336 
	C50.115574,40.456276 50.021221,40.741734 50.045322,41.066353 
	C49.982220,41.411045 49.788712,41.650215 49.245209,41.375046 
	C48.470558,40.620174 47.915497,40.274117 47.360432,39.928059 
	C47.541683,37.729298 47.722931,35.530533 47.935684,32.906677 
z"/>
<path fill="#53301E" opacity="1.000000" stroke="none" 
	d="
M47.349079,40.188126 
	C47.915497,40.274117 48.470558,40.620174 49.053986,41.231560 
	C49.082344,41.496883 48.813484,41.492702 48.683510,41.468147 
	C48.148266,41.111794 47.742996,40.779995 47.349079,40.188126 
z"/>
<path fill="#6C3536" opacity="1.000000" stroke="none" 
	d="
M50.227692,41.027748 
	C50.021221,40.741734 50.115574,40.456276 50.519371,40.081688 
	C50.764038,40.115162 50.817719,40.276928 50.825626,40.690224 
	C50.779854,40.941757 50.410061,40.989147 50.227692,41.027748 
z"/>
<path fill="#4E2617" opacity="1.000000" stroke="none" 
	d="
M26.575794,30.189560 
	C27.189318,31.755764 27.577770,33.497425 27.636080,35.622246 
	C26.918179,36.009266 26.530422,36.013134 26.142664,36.016998 
	C26.078720,35.847691 26.014774,35.678379 25.966129,34.878750 
	C25.852404,33.516296 25.723375,32.784164 25.594345,32.052032 
	C25.594345,32.052032 25.672813,31.697052 25.736691,31.526997 
	C25.983955,31.026300 26.167341,30.695660 26.575794,30.189560 
z"/>
<path fill="#E254A5" opacity="1.000000" stroke="none" 
	d="
M56.874523,33.663467 
	C56.664650,33.432098 56.541691,32.877296 56.612705,32.171089 
	C56.858265,32.459801 56.909851,32.899918 56.874523,33.663467 
z"/>
<path fill="#371E03" opacity="1.000000" stroke="none" 
	d="
M49.808563,27.021889 
	C49.819035,27.685898 49.548389,28.341572 49.005150,28.438570 
	C48.810040,27.588884 48.887531,27.297876 48.965023,27.006868 
	C49.152500,27.009098 49.339977,27.011326 49.808563,27.021889 
z"/>
<path fill="#4F2515" opacity="1.000000" stroke="none" 
	d="
M48.690350,27.015217 
	C48.887531,27.297876 48.810040,27.588884 48.487717,28.262505 
	C48.242886,28.645117 48.096718,28.602596 48.031223,28.563534 
	C47.966095,28.278912 47.966461,28.033352 47.916985,27.422842 
	C48.049988,27.046452 48.232834,27.035009 48.690350,27.015217 
z"/>
<path fill="#3D1E06" opacity="1.000000" stroke="none" 
	d="
M26.044041,36.429665 
	C26.530422,36.013134 26.918179,36.009266 27.596745,36.009224 
	C28.274883,38.880924 28.662214,41.748791 29.049545,44.616661 
	C28.486488,44.716564 27.923429,44.816467 27.360373,44.916367 
	C26.888721,42.225021 26.417070,39.533676 26.044041,36.429665 
z"/>
<path fill="#ED5BA0" opacity="1.000000" stroke="none" 
	d="
M25.422638,32.271420 
	C25.723375,32.784164 25.852404,33.516296 25.896164,34.616447 
	C25.624241,34.153244 25.437584,33.322025 25.422638,32.271420 
z"/>
<path fill="#7E7F63" opacity="1.000000" stroke="none" 
	d="
M33.113503,37.756912 
	C33.260593,37.178070 33.444016,36.885860 33.627438,36.593651 
	C33.652901,37.142406 33.685928,37.691090 33.691414,38.240047 
	C33.691929,38.291485 33.469509,38.410675 33.434982,38.384983 
	C33.319298,38.298908 33.241898,38.161373 33.113503,37.756912 
z"/>
<path fill="#6C3536" opacity="1.000000" stroke="none" 
	d="
M50.802574,35.770557 
	C50.615444,35.756802 50.497246,35.464027 50.524422,35.062263 
	C50.737034,35.132698 50.804272,35.312119 50.802574,35.770557 
z"/>
</svg>