<svg version="1.1" id="Layer_1" xmlns="http://www.w3.org/2000/svg" xmlns:xlink="http://www.w3.org/1999/xlink" x="0px" y="0px"
	 width="100%" viewBox="0 0 75 75" enable-background="new 0 0 75 75" xml:space="preserve">
<path fill="#000000" opacity="1.000000" stroke="none" 
	d="
M48.000000,76.000000 
	C32.000000,76.000000 16.500000,76.000000 1.000000,76.000000 
	C1.000000,51.000000 1.000000,26.000000 1.000000,1.000000 
	C26.000000,1.000000 51.000000,1.000000 76.000000,1.000000 
	C76.000000,26.000000 76.000000,51.000000 76.000000,76.000000 
	C66.833336,76.000000 57.666668,76.000000 48.000000,76.000000 
M19.984011,72.968536 
	C30.595064,72.979103 41.206451,73.034401 51.816845,72.955833 
	C53.568275,72.942871 55.315369,72.343559 57.637733,72.196808 
	C62.711651,71.756706 64.523048,68.452675 65.262421,63.200447 
	C66.455673,55.127625 67.648933,47.054802 69.094063,38.404308 
	C69.358353,37.238297 69.622643,36.072285 70.502518,34.616234 
	C73.439751,30.899494 70.446884,28.220013 68.368385,26.124475 
	C65.264992,22.995647 61.417728,20.604639 58.293907,17.314838 
	C59.471935,15.457545 62.064205,12.989454 61.573353,11.852932 
	C59.822498,7.799002 55.969490,8.566744 52.613842,9.326009 
	C51.972775,11.000291 51.405140,12.482796 50.094891,13.944695 
	C47.763577,13.125796 45.486408,12.030820 43.086788,11.560211 
	C40.296509,11.012988 36.895199,9.923782 34.637203,10.968227 
	C25.957315,14.983146 17.487028,19.514532 9.219296,24.334797 
	C3.755514,27.520304 3.199250,33.052105 6.734292,38.844185 
	C7.204527,43.556633 7.674762,48.269077 8.000664,53.811653 
	C9.035893,57.526234 10.071123,61.240818 11.094083,65.691566 
	C11.484790,70.596161 15.467633,71.540146 19.984011,72.968536 
z"/>
<path fill="#E354A6" opacity="1.000000" stroke="none" 
	d="
M11.106354,64.955399 
	C10.071123,61.240818 9.035893,57.526234 8.436880,53.383110 
	C16.980118,49.639359 25.099718,46.353897 33.166344,42.943142 
	C33.714169,42.711510 33.863716,41.537930 34.453598,40.807850 
	C35.164062,41.017414 35.619427,41.221554 36.254211,41.589813 
	C36.780956,41.644299 36.983112,41.409622 37.218018,41.014374 
	C37.395924,40.978844 37.755909,40.933407 38.155338,40.952820 
	C40.362118,40.636421 42.169464,40.300610 44.278858,40.027103 
	C45.144531,40.330753 45.708160,40.572094 46.489807,40.768356 
	C46.907379,40.499207 47.068542,40.250271 47.620064,39.978462 
	C52.870979,39.980286 57.693150,39.980122 62.777092,40.205906 
	C63.537487,40.844200 64.036118,41.256550 64.746338,41.843872 
	C64.922867,40.559002 65.031746,39.766571 65.510544,38.990364 
	C66.867714,38.998386 67.854958,38.990181 68.842194,38.981979 
	C67.648933,47.054802 66.455673,55.127625 64.759407,63.467484 
	C63.181492,63.473392 62.106590,63.212265 60.855850,62.570122 
	C60.457142,58.788467 60.195614,55.389805 60.021564,51.986675 
	C59.821453,48.074020 56.032146,44.025116 52.477329,44.011177 
	C47.752934,43.992649 44.240402,47.037510 44.046631,51.578522 
	C43.912941,54.711678 44.106262,57.858784 43.986229,61.318233 
	C40.896996,65.117294 37.941498,66.926338 34.000622,62.701466 
	C33.362637,62.017498 30.909004,62.408863 29.682510,63.047771 
	C28.131062,63.855957 26.976883,65.426781 25.443562,66.863350 
	C23.601625,65.220245 21.838276,62.404709 20.079357,62.407475 
	C18.090731,62.410603 16.106089,64.944572 13.695991,66.683769 
	C13.222800,66.367950 12.164577,65.661674 11.106354,64.955399 
z"/>
<path fill="#40210A" opacity="1.000000" stroke="none" 
	d="
M57.886925,17.899744 
	C61.417728,20.604639 65.264992,22.995647 68.368385,26.124475 
	C70.446884,28.220013 73.439751,30.899494 70.081520,34.408890 
	C68.482887,31.737377 69.175575,26.685362 63.651939,29.997135 
	C63.473660,30.006489 63.117340,30.029251 63.015999,29.673477 
	C61.968945,27.931910 61.023228,26.546118 59.725853,25.313416 
	C59.245438,27.001492 59.116688,28.536476 58.649986,29.942974 
	C52.353336,23.778526 53.426750,31.782940 52.212250,32.857445 
	C50.245869,31.820807 48.569183,30.176962 47.415878,30.486042 
	C44.964714,31.142944 44.782650,33.281773 45.948238,35.542610 
	C46.291241,36.207912 46.071953,37.163101 45.785751,37.983620 
	C45.028694,37.983967 44.596245,37.986130 43.983070,37.625114 
	C43.604378,35.357422 43.388332,33.454563 43.213573,31.547922 
	C43.041523,29.670729 42.911324,27.789696 42.762764,25.910351 
	C40.871605,26.283541 38.980450,26.656733 36.799686,27.024336 
	C36.316986,27.016964 36.123886,27.015181 35.665596,27.021915 
	C35.223782,27.040012 35.047153,27.049595 34.565010,26.881115 
	C32.989056,23.660187 31.745760,20.079679 27.577887,21.129808 
	C24.867783,21.812643 22.495111,23.834728 19.971266,25.256807 
	C18.025785,25.299660 15.110212,22.836575 13.604151,28.111187 
	C13.182200,29.278225 12.994963,30.322531 12.439167,31.266577 
	C8.135558,30.545372 7.405469,32.110416 9.156027,35.409641 
	C10.399571,37.753319 10.143780,39.016922 7.092443,38.162628 
	C3.199250,33.052105 3.755514,27.520304 9.219296,24.334797 
	C17.487028,19.514532 25.957315,14.983146 34.637203,10.968227 
	C36.895199,9.923782 40.296509,11.012988 43.086788,11.560211 
	C45.486408,12.030820 47.763577,13.125796 50.652412,14.247850 
	C53.435596,15.667253 55.661259,16.783499 57.886925,17.899744 
z"/>
<path fill="#FD67B8" opacity="1.000000" stroke="none" 
	d="
M6.913367,38.503407 
	C10.143780,39.016922 10.399571,37.753319 9.156027,35.409641 
	C7.405469,32.110416 8.135558,30.545372 12.368177,31.426840 
	C12.665748,31.687363 12.584510,32.028362 12.465683,32.266838 
	C12.501158,33.334763 12.655460,34.164207 12.879604,35.254158 
	C13.013720,35.682587 13.077994,35.850510 13.039799,36.434433 
	C13.417270,39.535561 13.897210,42.220684 14.377151,44.905811 
	C15.010546,44.775734 15.643942,44.645660 16.277338,44.515583 
	C15.814193,41.681484 15.351049,38.847385 14.930613,35.609573 
	C14.595168,32.800060 14.217016,30.394258 13.838864,27.988455 
	C15.110212,22.836575 18.025785,25.299660 19.971266,25.256807 
	C22.495111,23.834728 24.867783,21.812643 27.577887,21.129808 
	C31.745760,20.079679 32.989056,23.660187 34.606445,27.075188 
	C34.963589,27.719944 35.046482,27.968296 35.337746,28.455688 
	C35.652740,28.636328 35.832069,28.553659 36.021553,28.807562 
	C36.028938,30.266413 36.026180,31.388697 35.623657,32.598297 
	C34.935108,35.096611 34.646313,37.507607 34.291397,40.134819 
	C34.225277,40.351032 34.198494,40.802429 34.198494,40.802429 
	C33.863716,41.537930 33.714169,42.711510 33.166344,42.943142 
	C25.099718,46.353897 16.980118,49.639359 8.509047,52.968048 
	C7.674762,48.269077 7.204527,43.556633 6.913367,38.503407 
M20.346758,32.222866 
	C20.288519,33.125469 20.230278,34.028072 20.103806,35.664055 
	C20.434139,36.734814 20.764473,37.805569 21.724743,38.669743 
	C21.766006,37.796555 21.807270,36.923363 21.990461,35.383957 
	C21.941015,34.934372 21.891569,34.484791 21.963778,33.468697 
	C21.635494,32.955135 21.307209,32.441578 20.346758,32.222866 
z"/>
<path fill="#40210A" opacity="1.000000" stroke="none" 
	d="
M11.100219,65.323486 
	C12.164577,65.661674 13.222800,66.367950 13.695991,66.683769 
	C16.106089,64.944572 18.090731,62.410603 20.079357,62.407475 
	C21.838276,62.404709 23.601625,65.220245 25.443562,66.863350 
	C26.976883,65.426781 28.131062,63.855957 29.682510,63.047771 
	C30.909004,62.408863 33.362637,62.017498 34.000622,62.701466 
	C37.941498,66.926338 40.896996,65.117294 44.257912,61.512344 
	C50.845238,67.056107 53.274014,67.288544 61.031689,62.951138 
	C62.106590,63.212265 63.181492,63.473392 64.586716,63.819458 
	C64.523048,68.452675 62.711651,71.756706 56.876274,72.101883 
	C46.683250,72.004349 37.250851,71.930733 27.820608,72.041306 
	C24.897108,72.075577 21.979471,72.610100 19.059151,72.915588 
	C15.467633,71.540146 11.484790,70.596161 11.100219,65.323486 
z"/>
<path fill="#D8070A" opacity="1.000000" stroke="none" 
	d="
M58.090416,17.607292 
	C55.661259,16.783499 53.435596,15.667253 51.023716,14.258154 
	C51.405140,12.482796 51.972775,11.000291 52.613842,9.326009 
	C55.969490,8.566744 59.822498,7.799002 61.573353,11.852932 
	C62.064205,12.989454 59.471935,15.457545 58.090416,17.607292 
z"/>
<path fill="#FB68B9" opacity="1.000000" stroke="none" 
	d="
M63.830219,29.987780 
	C69.175575,26.685362 68.482887,31.737377 69.773727,34.553909 
	C69.622643,36.072285 69.358353,37.238297 68.968124,38.693142 
	C67.854958,38.990181 66.867714,38.998386 65.449898,38.620338 
	C64.938652,37.492260 64.857979,36.750435 64.808273,35.631065 
	C64.502907,33.498272 64.166565,31.743027 63.830219,29.987780 
z"/>
<path fill="#442A17" opacity="1.000000" stroke="none" 
	d="
M19.521580,72.942062 
	C21.979471,72.610100 24.897108,72.075577 27.820608,72.041306 
	C37.250851,71.930733 46.683250,72.004349 56.589645,72.011093 
	C55.315369,72.343559 53.568275,72.942871 51.816845,72.955833 
	C41.206451,73.034401 30.595064,72.979103 19.521580,72.942062 
z"/>
<path fill="#000000" opacity="1.000000" stroke="none" 
	d="
M60.855850,62.570122 
	C53.274014,67.288544 50.845238,67.056107 44.425125,61.193771 
	C44.106262,57.858784 43.912941,54.711678 44.046631,51.578522 
	C44.240402,47.037510 47.752934,43.992649 52.477329,44.011177 
	C56.032146,44.025116 59.821453,48.074020 60.021564,51.986675 
	C60.195614,55.389805 60.457142,58.788467 60.855850,62.570122 
z"/>
<path fill="#FC67B7" opacity="1.000000" stroke="none" 
	d="
M46.110355,37.985439 
	C46.071953,37.163101 46.291241,36.207912 45.948238,35.542610 
	C44.782650,33.281773 44.964714,31.142944 47.415878,30.486042 
	C48.569183,30.176962 50.245869,31.820807 52.212250,32.857445 
	C53.426750,31.782940 52.353336,23.778526 58.649483,29.913605 
	C58.986935,30.012718 58.935246,30.039139 58.970161,30.415318 
	C59.052315,31.543869 59.099545,32.296242 59.083412,33.371124 
	C58.926704,34.377487 58.833359,35.061344 58.740013,35.745197 
	C59.026512,35.794437 59.313015,35.843678 59.599514,35.892918 
	C59.775822,34.911247 59.952126,33.929577 60.353050,33.083870 
	C61.032818,33.481503 61.487961,33.743168 62.154366,34.014572 
	C62.365623,34.024311 62.787376,34.031101 62.841660,34.362137 
	C62.973026,35.132114 63.050110,35.571049 63.014332,36.398220 
	C62.772755,37.850956 62.644039,38.915455 62.515324,39.979958 
	C57.693150,39.980122 52.870979,39.980286 47.547092,39.657616 
	C46.700630,38.862289 46.355881,38.389801 46.018921,37.959129 
	C46.026714,38.000942 46.110355,37.985439 46.110355,37.985439 
z"/>
<path fill="#FD67B9" opacity="1.000000" stroke="none" 
	d="
M36.023418,32.510979 
	C36.026180,31.388697 36.028938,30.266413 36.409943,28.850143 
	C36.888557,28.047411 36.988922,27.538666 37.089287,27.029922 
	C38.980450,26.656733 40.871605,26.283541 42.762764,25.910351 
	C42.911324,27.789696 43.041523,29.670729 43.213573,31.547922 
	C43.388332,33.454563 43.604378,35.357422 43.901627,37.947582 
	C43.992878,39.077084 43.984848,39.520939 43.976814,39.964794 
	C42.169464,40.300610 40.362118,40.636421 38.197884,40.705708 
	C37.792366,40.279274 37.743736,40.119362 37.759712,39.643700 
	C37.812286,38.898960 37.800243,38.469963 37.869492,37.770020 
	C37.896038,37.318596 37.841297,37.138123 37.806465,36.735931 
	C37.826370,36.514210 37.760227,36.073925 37.826950,35.779926 
	C37.827511,35.296146 37.761349,35.106365 37.690186,34.536598 
	C37.131256,33.608070 36.577339,33.059525 36.023418,32.510979 
z"/>
<path fill="#371E03" opacity="1.000000" stroke="none" 
	d="
M35.623657,32.598297 
	C36.577339,33.059525 37.131256,33.608070 37.566978,34.660912 
	C37.552593,35.468113 37.656410,35.771019 37.760223,36.073925 
	C37.760227,36.073925 37.826370,36.514210 37.692322,36.849510 
	C37.438801,37.529255 37.515442,37.814640 37.788200,38.040970 
	C37.800243,38.469963 37.812286,38.898960 37.580650,39.776562 
	C37.137318,40.463833 37.038368,40.738747 37.040115,41.049904 
	C36.983112,41.409622 36.780956,41.644299 36.222816,41.335133 
	C35.460503,40.583755 34.909012,40.251179 34.357521,39.918606 
	C34.646313,37.507607 34.935108,35.096611 35.623657,32.598297 
z"/>
<path fill="#3B2004" opacity="1.000000" stroke="none" 
	d="
M62.777092,40.205906 
	C62.644039,38.915455 62.772755,37.850956 63.289364,36.405334 
	C64.043945,36.019012 64.410629,36.013809 64.777313,36.008606 
	C64.857979,36.750435 64.938652,37.492260 65.079971,38.604115 
	C65.031746,39.766571 64.922867,40.559002 64.746338,41.843872 
	C64.036118,41.256550 63.537487,40.844200 62.777092,40.205906 
z"/>
<path fill="#886A5D" opacity="1.000000" stroke="none" 
	d="
M44.278858,40.027103 
	C43.984848,39.520939 43.992878,39.077084 44.082352,38.310760 
	C44.596245,37.986130 45.028694,37.983967 45.785751,37.983620 
	C46.110355,37.985439 46.026714,38.000942 46.031502,38.321465 
	C46.114792,39.365807 46.193291,40.089619 46.271790,40.813435 
	C45.708160,40.572094 45.144531,40.330753 44.278858,40.027103 
z"/>
<path fill="#371E0A" opacity="1.000000" stroke="none" 
	d="
M46.489807,40.768356 
	C46.193291,40.089619 46.114792,39.365807 46.023712,38.279652 
	C46.355881,38.389801 46.700630,38.862289 47.118347,39.655624 
	C47.068542,40.250271 46.907379,40.499207 46.489807,40.768356 
z"/>
<path fill="#53301E" opacity="1.000000" stroke="none" 
	d="
M34.291397,40.134819 
	C34.909012,40.251179 35.460503,40.583755 36.043388,41.171013 
	C35.619427,41.221554 35.164062,41.017414 34.453598,40.807850 
	C34.198494,40.802429 34.225277,40.351032 34.291397,40.134819 
z"/>
<path fill="#68332D" opacity="1.000000" stroke="none" 
	d="
M37.218018,41.014374 
	C37.038368,40.738747 37.137318,40.463833 37.516037,40.092308 
	C37.743736,40.119362 37.792366,40.279274 37.798454,40.686295 
	C37.755909,40.933407 37.395924,40.978844 37.218018,41.014374 
z"/>
<path fill="#FD68C1" opacity="1.000000" stroke="none" 
	d="
M61.943104,34.004837 
	C61.487961,33.743168 61.032818,33.481503 60.298195,33.141949 
	C60.018723,33.064060 59.859100,33.070995 59.920956,32.698090 
	C59.937748,31.573296 59.892685,30.821404 59.896866,29.662348 
	C59.989910,27.890230 60.033710,26.525278 60.077515,25.160324 
	C61.023228,26.546118 61.968945,27.931910 62.940376,29.593761 
	C62.966091,29.869822 62.759045,29.944288 62.600342,30.253132 
	C62.275459,31.709595 62.109280,32.857216 61.943104,34.004837 
z"/>
<path fill="#4E2617" opacity="1.000000" stroke="none" 
	d="
M12.584510,32.028362 
	C12.584510,32.028362 12.665748,31.687363 12.736736,31.527100 
	C12.994963,30.322531 13.182200,29.278225 13.604151,28.111187 
	C14.217016,30.394258 14.595168,32.800060 14.639669,35.608215 
	C13.918102,36.013184 13.530185,36.015808 13.142268,36.018429 
	C13.077994,35.850510 13.013720,35.682587 12.963991,34.881874 
	C12.847196,33.508846 12.715853,32.768604 12.584510,32.028362 
z"/>
<path fill="#482616" opacity="1.000000" stroke="none" 
	d="
M64.808281,35.631065 
	C64.410629,36.013809 64.043945,36.019012 63.402229,36.017101 
	C63.050110,35.571049 62.973026,35.132114 62.934055,33.958492 
	C62.901131,32.130634 62.830086,31.037462 62.759045,29.944288 
	C62.759045,29.944288 62.966091,29.869822 63.041718,29.949535 
	C63.117340,30.029251 63.473660,30.006489 63.651939,29.997135 
	C64.166565,31.743027 64.502907,33.498272 64.808281,35.631065 
z"/>
<path fill="#B65674" opacity="1.000000" stroke="none" 
	d="
M59.725853,25.313416 
	C60.033710,26.525278 59.989910,27.890230 59.669533,29.646162 
	C59.392960,30.037140 58.935246,30.039139 58.935246,30.039139 
	C58.935246,30.039139 58.986935,30.012718 58.987434,30.042088 
	C59.116688,28.536476 59.245438,27.001492 59.725853,25.313416 
z"/>
<path fill="#371E03" opacity="1.000000" stroke="none" 
	d="
M36.799683,27.024334 
	C36.988922,27.538666 36.888557,28.047411 36.399796,28.513575 
	C35.832069,28.553659 35.652740,28.636328 35.532547,28.168722 
	C35.704720,27.416765 35.817757,27.215082 35.930790,27.013399 
	C36.123886,27.015181 36.316986,27.016964 36.799683,27.024334 
z"/>
<path fill="#4F2515" opacity="1.000000" stroke="none" 
	d="
M35.665596,27.021915 
	C35.817757,27.215082 35.704720,27.416765 35.396885,27.905415 
	C35.046482,27.968296 34.963589,27.719944 34.911964,27.253250 
	C35.047153,27.049595 35.223782,27.040012 35.665596,27.021915 
z"/>
<path fill="#3D1E06" opacity="1.000000" stroke="none" 
	d="
M13.039799,36.434433 
	C13.530185,36.015808 13.918102,36.013184 14.596962,36.011925 
	C15.351049,38.847385 15.814193,41.681484 16.277338,44.515583 
	C15.643942,44.645660 15.010546,44.775734 14.377151,44.905811 
	C13.897210,42.220684 13.417270,39.535561 13.039799,36.434433 
z"/>
<path fill="#592F1D" opacity="1.000000" stroke="none" 
	d="
M21.842123,34.035206 
	C21.891569,34.484791 21.941015,34.934372 21.762306,35.968468 
	C21.387705,37.327431 21.241255,38.101879 21.094807,38.876328 
	C20.764473,37.805569 20.434139,36.734814 20.319193,35.152199 
	C20.756039,34.421898 20.953167,34.183353 21.304594,33.954987 
	C21.483223,33.985275 21.842123,34.035206 21.842123,34.035206 
z"/>
<path fill="#3D1B06" opacity="1.000000" stroke="none" 
	d="
M21.409775,38.773033 
	C21.241255,38.101879 21.387705,37.327431 21.691343,36.301579 
	C21.807270,36.923363 21.766006,37.796555 21.409775,38.773033 
z"/>
<path fill="#361E09" opacity="1.000000" stroke="none" 
	d="
M21.125965,33.924702 
	C20.953167,34.183353 20.756039,34.421898 20.353310,34.785507 
	C20.230278,34.028072 20.288519,33.125469 20.675112,32.409096 
	C21.044298,33.038452 21.085131,33.481579 21.125965,33.924702 
z"/>
<path fill="#ED5BA0" opacity="1.000000" stroke="none" 
	d="
M12.465683,32.266838 
	C12.715853,32.768604 12.847196,33.508846 12.894151,34.621372 
	C12.655460,34.164207 12.501158,33.334763 12.465683,32.266838 
z"/>
<path fill="#763131" opacity="1.000000" stroke="none" 
	d="
M21.304594,33.954987 
	C21.085131,33.481579 21.044298,33.038452 20.991196,32.261673 
	C21.307209,32.441578 21.635494,32.955135 21.902950,33.751953 
	C21.842123,34.035206 21.483223,33.985275 21.304594,33.954987 
z"/>
<path fill="#6E3635" opacity="1.000000" stroke="none" 
	d="
M60.073578,33.005981 
	C59.952126,33.929577 59.775822,34.911247 59.599514,35.892918 
	C59.313015,35.843678 59.026512,35.794437 58.740013,35.745197 
	C58.833359,35.061344 58.926704,34.377487 59.261681,33.367218 
	C59.503315,33.040806 59.859100,33.070995 59.859100,33.070995 
	C59.859100,33.070995 60.018723,33.064060 60.073578,33.005981 
z"/>
<path fill="#EC5EA1" opacity="1.000000" stroke="none" 
	d="
M62.600342,30.253132 
	C62.830086,31.037462 62.901131,32.130634 62.879776,33.627457 
	C62.787376,34.031101 62.365623,34.024311 62.154366,34.014572 
	C62.109280,32.857216 62.275459,31.709595 62.600342,30.253132 
z"/>
<path fill="#923D4F" opacity="1.000000" stroke="none" 
	d="
M59.920956,32.698090 
	C59.859100,33.070995 59.503315,33.040806 59.325047,33.044708 
	C59.099545,32.296242 59.052315,31.543869 58.970161,30.415318 
	C58.935246,30.039139 59.392960,30.037140 59.620289,30.053326 
	C59.892685,30.821404 59.937748,31.573296 59.920956,32.698090 
z"/>
<path fill="#723845" opacity="1.000000" stroke="none" 
	d="
M37.826950,35.779926 
	C37.656410,35.771019 37.552593,35.468113 37.571983,35.040894 
	C37.761349,35.106365 37.827511,35.296146 37.826950,35.779926 
z"/>
<path fill="#723845" opacity="1.000000" stroke="none" 
	d="
M37.869492,37.770020 
	C37.515442,37.814640 37.438801,37.529255 37.672417,37.071236 
	C37.841297,37.138123 37.896038,37.318596 37.869492,37.770020 
z"/>
</svg>